<svg width="24" height="24" viewBox="0 0 24 24" fill="none" xmlns="http://www.w3.org/2000/svg">
<path d="M1.86159 9.97417C0.833464 8.93996 0.833464 7.26317 1.86159 6.22895L5.23816 2.83241C6.26629 1.79819 7.93322 1.79819 8.96135 2.83241V2.83241C9.98948 3.86662 9.98948 5.54341 8.96135 6.57763L5.58478 9.97417C4.55665 11.0084 2.88972 11.0084 1.86159 9.97417V9.97417Z" fill="#338E3C"/>
<rect x="6.77637" y="1.11035" width="3.94658" height="3.89503" rx="1.94751" fill="#338E3C"/>
<ellipse cx="7.81709" cy="3.77601" rx="0.601275" ry="0.56312" fill="#D9D9D9"/>
<rect x="9.11719" y="5.34473" width="3.22216" height="16.6527" fill="#338E3C"/>
<path fill-rule="evenodd" clip-rule="evenodd" d="M18.852 5.34473H22.941L11.8077 18.735L9.26855 16.8709L18.852 5.34473Z" fill="#338E3C"/>
<path fill-rule="evenodd" clip-rule="evenodd" d="M14.1802 12.1768L11.7119 14.123L20.5323 24.0005L20.5324 24.0004L20.5325 24.0005L23.0008 22.0543L22.9509 21.9984H22.9507L14.1802 12.1768ZM22.9507 21.9984H18.7447L20.5324 24.0004L23.0006 22.0543L22.9507 21.9984Z" fill="#338E3C"/>
</svg>
